<svg xmlns="http://www.w3.org/2000/svg" width="27" height="27" viewBox="0 0 27 27" fill="none">
<path d="M15.4831 25.6275L16.0273 22.1427L17.6493 22.5575L15.4831 25.6275ZM14.6173 21.5073C14.6122 21.5169 14.608 21.5269 14.6046 21.5372C14.6036 21.5399 14.6029 21.5422 14.6022 21.5449C14.5991 21.5552 14.5961 21.5658 14.5944 21.5768L13.8787 26.1597C13.866 26.2432 13.8304 26.325 13.7715 26.3879C13.6435 26.5253 13.4337 26.5725 13.2571 26.5C13.1517 26.4568 13.063 26.3733 13.0162 26.2718L10.3601 20.4242L24.3682 0.63105C24.3699 0.62972 24.3716 0.628722 24.3733 0.627391C24.516 0.534915 24.6988 0.509634 24.8638 0.557535C25.0989 0.625728 25.2697 0.842614 25.2759 1.08245L14.6173 21.5073ZM1.06424 17.9839C0.968751 17.8635 0.927337 17.7145 0.947531 17.5634C0.967725 17.4128 1.04713 17.2784 1.17069 17.1859L22.1411 1.5445L8.98605 20.1335L1.37776 18.1872C1.2542 18.1552 1.14297 18.0834 1.06424 17.9839ZM25.207 23.0621C25.2053 23.101 25.1991 23.1416 25.1885 23.1815C25.1067 23.4826 24.788 23.6629 24.4783 23.5833L18.0994 21.952L16.1779 21.4607L26.2232 2.21146L25.207 23.0621Z" fill="url(#paint0_radial_945_2433)"/>
<defs>
<radialGradient id="paint0_radial_945_2433" cx="0" cy="0" r="1" gradientUnits="userSpaceOnUse" gradientTransform="translate(8.44456 18.4444) rotate(-28.6795) scale(31.9726 67.4734)">
<stop stop-color="#4ECAEF"/>
<stop offset="0.299717" stop-color="#57ECFF" stop-opacity="0.74"/>
<stop offset="0.518045" stop-color="#6ADDFF" stop-opacity="0.54725"/>
<stop offset="0.69618" stop-color="#4ECAEF"/>
</radialGradient>
</defs>
</svg>