<svg width="90" height="90" viewBox="0 0 90 90" fill="none" xmlns="http://www.w3.org/2000/svg">
<g filter="url(#filter0_b_123_2077)">
<path d="M41.573 66.7363L42.5526 60.4636L45.4722 61.2103L41.573 66.7363ZM41.8146 59.7523C41.8053 59.7697 41.7979 59.7876 41.7918 59.8062C41.7899 59.811 41.7887 59.8152 41.7874 59.82C41.7819 59.8385 41.7764 59.8577 41.7733 59.8774L40.485 68.1266C40.4622 68.2769 40.3982 68.4242 40.2922 68.5374C40.0618 68.7847 39.6841 68.8697 39.3662 68.7392C39.1765 68.6613 39.0169 68.511 38.9325 68.3284L34.1517 57.8027L59.3661 22.175C59.3692 22.1726 59.3723 22.1708 59.3754 22.1685C59.6323 22.002 59.9613 21.9565 60.2582 22.0427C60.6815 22.1655 60.9889 22.5559 61 22.9876L41.8146 59.7523ZM19.2191 53.4102C19.0472 53.1934 18.9726 52.9252 19.009 52.6533C19.0453 52.3821 19.1883 52.1402 19.4107 51.9737L57.1575 23.8192L33.4783 57.2794L19.7834 53.776C19.561 53.7185 19.3608 53.5892 19.2191 53.4102ZM59.076 62.5509C59.0729 62.621 59.0618 62.694 59.0427 62.7659C58.8955 63.3078 58.3219 63.6323 57.7643 63.4892L46.2824 60.5528L42.8237 59.6685L60.9051 25.0198L59.076 62.5509Z" fill="url(#paint0_radial_123_2077)" fill-opacity="0.8"/>
<path d="M19.4541 53.2238L19.4543 53.224C19.5547 53.3509 19.6982 53.4441 19.8581 53.4855C19.8582 53.4855 19.8584 53.4855 19.8585 53.4856L33.3527 56.9376L55.8181 25.1925L19.5904 52.2139C19.4315 52.3329 19.3318 52.5031 19.3063 52.6931L19.4541 53.2238ZM19.4541 53.2238C19.3323 53.0701 19.2809 52.8834 19.3063 52.6932L19.4541 53.2238ZM40.1886 68.0803L40.1884 68.0816C40.1734 68.1805 40.1322 68.2694 40.0732 68.3323L40.0727 68.3329C39.9271 68.4891 39.6821 68.5445 39.4802 68.4616L39.4801 68.4616C39.3583 68.4117 39.257 68.3146 39.2053 68.2035C39.2051 68.2032 39.205 68.2029 39.2048 68.2025L34.4961 57.8355L59.5763 22.3974C59.7525 22.2983 59.9735 22.2724 60.1746 22.3308L60.1747 22.3308C60.4526 22.4115 60.6576 22.6551 60.6944 22.9248L41.5497 59.6114C41.5495 59.6118 41.5492 59.6123 41.549 59.6128C41.532 59.6449 41.519 59.6765 41.5089 59.7062C41.5044 59.7186 41.5011 59.7295 41.4987 59.7384C41.493 59.7575 41.483 59.7921 41.4769 59.8312C41.4769 59.8312 41.4769 59.8312 41.4769 59.8312L40.1886 68.0803ZM58.7763 62.5363L58.7763 62.5377C58.7742 62.5857 58.7665 62.6371 58.7529 62.6883C58.65 63.0647 58.2439 63.3025 57.8389 63.1986L57.8387 63.1985L46.3567 60.2622L46.2824 60.5528L46.3567 60.2622L43.2648 59.4716L60.539 26.3699L58.7763 62.5363ZM42.0673 65.5154L42.7981 60.8361L44.9761 61.3931L42.0673 65.5154Z" stroke="url(#paint1_linear_123_2077)" stroke-width="0.6"/>
</g>
<g filter="url(#filter1_b_123_2077)">
<path fill-rule="evenodd" clip-rule="evenodd" d="M45 90C69.8528 90 90 69.8528 90 45C90 20.1472 69.8528 0 45 0C20.1472 0 0 20.1472 0 45C0 69.8528 20.1472 90 45 90ZM42.5526 60.4636L41.5732 66.7355L45.4722 61.2103L42.5526 60.4636ZM41.7918 59.8062C41.7979 59.7876 41.8053 59.7697 41.8146 59.7523H41.8139C41.8146 59.7517 61 22.9876 61 22.9876C60.9889 22.5559 60.6815 22.1655 60.2582 22.0427C59.9613 21.9565 59.6323 22.002 59.3754 22.1685C59.3738 22.1697 59.3723 22.1707 59.3708 22.1718C59.3692 22.1728 59.3677 22.1738 59.3661 22.175L34.1517 57.8027L38.9325 68.3284C39.0169 68.511 39.1765 68.6613 39.3662 68.7391C39.6841 68.8697 40.0618 68.7846 40.2922 68.5374C40.3982 68.4242 40.4622 68.2769 40.485 68.1266L41.7733 59.8774C41.7764 59.8577 41.7819 59.8385 41.7874 59.82C41.7887 59.8152 41.7899 59.811 41.7918 59.8062ZM19.009 52.6533C18.9726 52.9252 19.0472 53.1934 19.2191 53.4102C19.3608 53.5892 19.561 53.7185 19.7834 53.776L33.4783 57.2794L57.1575 23.8192L19.4107 51.9737C19.1883 52.1402 19.0453 52.3821 19.009 52.6533ZM59.0427 62.7659C59.0618 62.694 59.0729 62.621 59.076 62.5509L60.9051 25.0198L42.8237 59.6685L46.2824 60.5528L57.7643 63.4892C58.3219 63.6323 58.8955 63.3078 59.0427 62.7659Z" fill="url(#paint2_radial_123_2077)" fill-opacity="0.3"/>
</g>
<defs>
<filter id="filter0_b_123_2077" x="17" y="20" width="46" height="50.8" filterUnits="userSpaceOnUse" color-interpolation-filters="sRGB">
<feFlood flood-opacity="0" result="BackgroundImageFix"/>
<feGaussianBlur in="BackgroundImageFix" stdDeviation="1"/>
<feComposite in2="SourceAlpha" operator="in" result="effect1_backgroundBlur_123_2077"/>
<feBlend mode="normal" in="SourceGraphic" in2="effect1_backgroundBlur_123_2077" result="shape"/>
</filter>
<filter id="filter1_b_123_2077" x="-4" y="-4" width="98" height="98" filterUnits="userSpaceOnUse" color-interpolation-filters="sRGB">
<feFlood flood-opacity="0" result="BackgroundImageFix"/>
<feGaussianBlur in="BackgroundImageFix" stdDeviation="2"/>
<feComposite in2="SourceAlpha" operator="in" result="effect1_backgroundBlur_123_2077"/>
<feBlend mode="normal" in="SourceGraphic" in2="effect1_backgroundBlur_123_2077" result="shape"/>
</filter>
<radialGradient id="paint0_radial_123_2077" cx="0" cy="0" r="1" gradientUnits="userSpaceOnUse" gradientTransform="translate(23.5 54) rotate(-28.3727) scale(60.2248 127.095)">
<stop stop-color="#74D3EA"/>
<stop offset="0.299717" stop-color="#8FF2FF" stop-opacity="0.42"/>
<stop offset="0.518045" stop-color="#50D4E5" stop-opacity="0.57"/>
<stop offset="0.78993" stop-color="#4ECAEF" stop-opacity="0.77"/>
</radialGradient>
<linearGradient id="paint1_linear_123_2077" x1="22.4337" y1="39.0274" x2="40.9265" y2="68.2129" gradientUnits="userSpaceOnUse">
<stop stop-color="white" stop-opacity="0.64"/>
<stop offset="1" stop-color="white" stop-opacity="0.24"/>
</linearGradient>
<radialGradient id="paint2_radial_123_2077" cx="0" cy="0" r="1" gradientUnits="userSpaceOnUse" gradientTransform="translate(45 45) rotate(-180) scale(45)">
<stop offset="0.78125" stop-color="white"/>
<stop offset="0.976083" stop-color="white" stop-opacity="0.2"/>
</radialGradient>
</defs>
</svg>
