<svg width="20" height="20" viewBox="0 0 20 20" fill="none" xmlns="http://www.w3.org/2000/svg">
<path d="M13.125 10.1279C13.125 10.9567 12.7958 11.7516 12.2097 12.3376C11.6237 12.9237 10.8288 13.2529 10 13.2529C9.1712 13.2529 8.37634 12.9237 7.79029 12.3376C7.20424 11.7516 6.875 10.9567 6.875 10.1279C6.875 9.9498 6.89375 9.77585 6.92604 9.6071H5.83333V13.7706C5.83333 14.0602 6.06771 14.2946 6.35729 14.2946H13.6438C13.7825 14.2943 13.9155 14.239 14.0136 14.1408C14.1116 14.0425 14.1667 13.9094 14.1667 13.7706V9.6071H13.074C13.1062 9.77585 13.125 9.9498 13.125 10.1279ZM10 12.2113C10.2737 12.2112 10.5446 12.1572 10.7974 12.0524C11.0502 11.9477 11.2799 11.7941 11.4734 11.6005C11.6668 11.407 11.8202 11.1772 11.9249 10.9244C12.0296 10.6715 12.0834 10.4005 12.0833 10.1269C12.0833 9.85323 12.0293 9.58227 11.9245 9.32947C11.8197 9.07667 11.6662 8.84699 11.4726 8.65353C11.2791 8.46008 11.0493 8.30664 10.7965 8.20198C10.5436 8.09732 10.2726 8.04349 9.99896 8.04355C9.44629 8.04369 8.9163 8.26337 8.5256 8.65427C8.1349 9.04517 7.91549 9.57526 7.91562 10.1279C7.91576 10.6806 8.13544 11.2106 8.52634 11.6013C8.91724 11.992 9.44733 12.2114 10 12.2113ZM12.5 7.94043H13.749C13.8319 7.94043 13.9115 7.90754 13.9703 7.84896C14.0291 7.79039 14.0622 7.7109 14.0625 7.62793V6.37897C14.0625 6.29581 14.0295 6.21606 13.9707 6.15726C13.9119 6.09846 13.8321 6.06543 13.749 6.06543H12.5C12.4168 6.06543 12.3371 6.09846 12.2783 6.15726C12.2195 6.21606 12.1865 6.29581 12.1865 6.37897V7.62793C12.1875 7.7998 12.3281 7.94043 12.5 7.94043ZM10 0.12793C7.34784 0.12793 4.8043 1.1815 2.92893 3.05686C1.05357 4.93223 0 7.47576 0 10.1279C0 12.7801 1.05357 15.3236 2.92893 17.199C4.8043 19.0744 7.34784 20.1279 10 20.1279C11.3132 20.1279 12.6136 19.8693 13.8268 19.3667C15.0401 18.8642 16.1425 18.1276 17.0711 17.199C17.9997 16.2704 18.7362 15.168 19.2388 13.9548C19.7413 12.7415 20 11.4411 20 10.1279C20 8.81471 19.7413 7.51435 19.2388 6.30109C18.7362 5.08784 17.9997 3.98545 17.0711 3.05686C16.1425 2.12828 15.0401 1.39168 13.8268 0.889134C12.6136 0.386587 11.3132 0.12793 10 0.12793ZM15.2083 14.179C15.2083 14.8154 14.6875 15.3363 14.051 15.3363H5.94896C5.3125 15.3363 4.79167 14.8154 4.79167 14.179V6.07689C4.79167 5.44043 5.3125 4.9196 5.94896 4.9196H14.051C14.6875 4.9196 15.2083 5.44043 15.2083 6.07689V14.179Z" fill="#C9ECFF"/>
</svg>
