<svg xmlns="http://www.w3.org/2000/svg" width="52" height="58" viewBox="0 0 52 58" fill="none">
  <path d="M27.5893 54.6777L28.7865 47.0111L32.355 47.9237L27.5893 54.6769V54.6777ZM27.8845 46.1417C27.8732 46.1629 27.8641 46.1849 27.8566 46.2076C27.8543 46.2134 27.8528 46.2185 27.8513 46.2244C27.8445 46.2471 27.8378 46.2705 27.834 46.2946L26.2595 56.377C26.2316 56.5607 26.1533 56.7407 26.0238 56.879C25.7422 57.1812 25.2806 57.2852 24.8921 57.1256C24.6601 57.0305 24.4651 56.8468 24.362 56.6236L18.5188 43.7589L49.3364 0.213937C49.3402 0.21101 49.3439 0.208815 49.3477 0.205887C49.6617 0.00244056 50.0638 -0.053178 50.4267 0.0522045C50.944 0.202228 51.3198 0.679377 51.3333 1.20702C51.3333 1.20702 27.8845 46.141 27.8837 46.1417H27.8845ZM0.267765 38.3902C0.057681 38.1253 -0.0334309 37.7974 0.0109955 37.4652C0.055422 37.1337 0.230116 36.838 0.501945 36.6346L46.6369 2.22352L17.6957 43.1193L0.957505 38.8374C0.685675 38.7671 0.440953 38.609 0.267765 38.3902ZM48.9817 49.5622C48.978 49.6479 48.9644 49.7371 48.9411 49.825C48.7611 50.4873 48.0601 50.8839 47.3786 50.709L33.3451 47.1201L29.1179 46.0392L51.2174 3.69083L48.9817 49.5622Z" fill="url(#paint0_radial_941_2426)"/>
  <defs>
    <radialGradient id="paint0_radial_941_2426" cx="0" cy="0" r="1" gradientUnits="userSpaceOnUse" gradientTransform="translate(5.5 39.1111) rotate(-28.3727) scale(73.608 155.339)">
      <stop stop-color="#69D4EE"/>
      <stop offset="0.299717" stop-color="#6FEBFB" stop-opacity="0.57"/>
      <stop offset="0.518045" stop-color="#50D4E5" stop-opacity="0.75"/>
      <stop offset="0.78993" stop-color="#4ECAEF" stop-opacity="0.77"/>
    </radialGradient>
  </defs>
</svg>