<svg width="15" height="13" viewBox="0 0 15 13" fill="none" xmlns="http://www.w3.org/2000/svg">
<path d="M14.1177 6.17647C14.1177 6.41049 14.0247 6.63492 13.8592 6.80039L8.56512 12.0945C8.22054 12.4391 7.66187 12.4391 7.31729 12.0945C6.97271 11.7499 6.97271 11.1913 7.31729 10.8467L11.1051 7.05882L0.882382 7.05882C0.395071 7.05882 2.89015e-05 6.66378 2.88802e-05 6.17647C2.88589e-05 5.68916 0.395072 5.29412 0.882382 5.29412L11.1051 5.29412L7.31729 1.50627C6.97271 1.16169 6.97271 0.603016 7.31729 0.258435C7.66187 -0.0861448 8.22054 -0.0861447 8.56512 0.258435L13.8592 5.55255C14.0247 5.71803 14.1177 5.94246 14.1177 6.17647Z" fill="#0D0D0D"/>
</svg>
