<svg width="20" height="20" viewBox="0 0 20 20" fill="none" xmlns="http://www.w3.org/2000/svg">
<path d="M10 0C4.47708 0 0 4.47708 0 10C0 15.5229 4.47708 20 10 20C15.5229 20 20 15.5229 20 10C20 4.47708 15.5229 0 10 0ZM14.0677 8.19167C14.0719 8.27708 14.0729 8.3625 14.0729 8.44583C14.0729 11.05 12.0927 14.051 8.46979 14.051C7.39926 14.0528 6.35101 13.7454 5.45104 13.1656C5.60417 13.1844 5.76146 13.1917 5.92083 13.1917C6.84375 13.1917 7.69271 12.8781 8.36667 12.349C7.95595 12.3409 7.55799 12.2049 7.22824 11.9599C6.89849 11.7149 6.65338 11.3732 6.52708 10.9823C6.82204 11.0384 7.12589 11.0266 7.41562 10.9479C6.96984 10.8578 6.56896 10.6162 6.28095 10.2642C5.99294 9.91224 5.83553 9.47147 5.83542 9.01667V8.99271C6.10104 9.13958 6.40521 9.22917 6.72812 9.23958C6.31021 8.96138 6.01436 8.53403 5.90109 8.04493C5.78782 7.55583 5.86568 7.04193 6.11875 6.60833C6.61349 7.21667 7.23048 7.71432 7.92976 8.06907C8.62904 8.42383 9.39502 8.62777 10.1781 8.66771C10.0786 8.24511 10.1214 7.80146 10.3 7.40573C10.4786 7.01 10.7829 6.68436 11.1657 6.47944C11.5485 6.27452 11.9882 6.20179 12.4166 6.27257C12.8449 6.34335 13.2379 6.55367 13.5344 6.87083C13.9752 6.78362 14.3979 6.62193 14.7844 6.39271C14.6375 6.8491 14.3299 7.23664 13.9187 7.48333C14.3092 7.4363 14.6905 7.33133 15.05 7.17187C14.7859 7.5676 14.4533 7.91296 14.0677 8.19167V8.19167Z" fill="#C9ECFF"/>
</svg>
