<svg width="24" height="24" viewBox="0 0 24 24" fill="none" xmlns="http://www.w3.org/2000/svg">
<path d="M6.35294 10.4487C6.35294 14.3086 9.77667 17.5003 11.2925 18.7239C11.5103 18.8989 11.6192 18.988 11.7814 19.0326C11.9072 19.0676 12.0928 19.0676 12.2186 19.0326C12.3808 18.988 12.4897 18.8997 12.7075 18.7239C14.2233 17.5003 17.6471 14.3086 17.6471 10.4487C17.6463 9.72398 17.4998 9.00661 17.2159 8.33816C16.932 7.6697 16.5165 7.06345 15.9933 6.55452C14.9293 5.51955 13.4945 4.93987 12 4.94116C10.5055 4.93987 9.0707 5.51955 8.00672 6.55452C7.48349 7.06342 7.06789 7.66967 6.784 8.33813C6.50012 9.00659 6.3536 9.72397 6.35294 10.4487Z" stroke="black" stroke-width="1.5" stroke-linecap="round" stroke-linejoin="round"/>
<path d="M10.3866 9.71413C10.3866 10.1361 10.5566 10.5408 10.8592 10.8392C11.1618 11.1376 11.5721 11.3052 12.0001 11.3052C12.428 11.3052 12.8384 11.1376 13.1409 10.8392C13.4435 10.5408 13.6135 10.1361 13.6135 9.71413C13.6135 9.29215 13.4435 8.88745 13.1409 8.58906C12.8384 8.29068 12.428 8.12305 12.0001 8.12305C11.5721 8.12305 11.1618 8.29068 10.8592 8.58906C10.5566 8.88745 10.3866 9.29215 10.3866 9.71413Z" stroke="black" stroke-width="1.5" stroke-linecap="round" stroke-linejoin="round"/>
</svg>
