<svg width="13" height="15" viewBox="0 0 13 15" fill="none" xmlns="http://www.w3.org/2000/svg">
<path d="M6.17647 0C6.41049 5.25923e-08 6.63492 0.092962 6.80039 0.258435L12.0945 5.55255C12.4391 5.89713 12.4391 6.45581 12.0945 6.80039C11.7499 7.14497 11.1913 7.14497 10.8467 6.80039L7.05882 3.01254L7.05882 13.2353C7.05882 13.7226 6.66378 14.1176 6.17647 14.1176C5.68916 14.1176 5.29412 13.7226 5.29412 13.2353L5.29412 3.01254L1.50627 6.80039C1.16169 7.14497 0.603015 7.14497 0.258435 6.80039C-0.0861451 6.45581 -0.086145 5.89713 0.258435 5.55255L5.55255 0.258435C5.71803 0.0929618 5.94246 0 6.17647 0Z" fill="#0D0D0D"/>
</svg>
