<svg width="24" height="24" viewBox="0 0 24 24" fill="none" xmlns="http://www.w3.org/2000/svg">
<path d="M7.69152 12C7.69152 11.8667 7.71652 11.7377 7.76652 11.613C7.81652 11.4877 7.88318 11.3834 7.96652 11.3L12.5665 6.70005C12.7498 6.51672 12.9832 6.42505 13.2665 6.42505C13.5498 6.42505 13.7832 6.51672 13.9665 6.70005C14.1498 6.88338 14.2415 7.11672 14.2415 7.40005C14.2415 7.68338 14.1498 7.91672 13.9665 8.10005L10.0665 12L13.9665 15.9C14.1498 16.0834 14.2415 16.3167 14.2415 16.6C14.2415 16.8834 14.1498 17.1167 13.9665 17.3C13.7832 17.4834 13.5498 17.5751 13.2665 17.5751C12.9832 17.5751 12.7498 17.4834 12.5665 17.3L7.96652 12.7C7.86652 12.6 7.79585 12.4917 7.75452 12.375C7.71252 12.2584 7.69152 12.1334 7.69152 12Z" fill="#152644"/>
</svg>
