<svg width="83" height="83" viewBox="0 0 83 83" fill="none" xmlns="http://www.w3.org/2000/svg">
<path d="M37.8109 59.2802L38.6272 54.053L41.0602 54.6752L37.8109 59.2797V59.2802ZM38.0121 53.4602C38.0044 53.4747 37.9983 53.4897 37.9931 53.5052C37.9916 53.5091 37.9906 53.5126 37.9895 53.5166C37.9849 53.5321 37.9803 53.5481 37.9777 53.5645L36.9042 60.4388C36.8852 60.5641 36.8318 60.6868 36.7435 60.7811C36.5515 60.9872 36.2368 61.0581 35.9719 60.9493C35.8137 60.8844 35.6808 60.7592 35.6104 60.607L31.6264 51.8356L52.6385 22.1459C52.641 22.1439 52.6436 22.1424 52.6462 22.1404C52.8602 22.0017 53.1344 21.9637 53.3819 22.0356C53.7346 22.1379 53.9908 22.4632 54 22.823C54 22.823 38.0121 53.4597 38.0116 53.4602H38.0121ZM19.1826 48.1751C19.0393 47.9945 18.9772 47.771 19.0075 47.5445C19.0378 47.3184 19.1569 47.1168 19.3422 46.9781L50.7979 23.516L31.0653 51.3995L19.6528 48.48C19.4675 48.4321 19.3006 48.3243 19.1826 48.1751ZM52.3966 55.7924C52.3941 55.8508 52.3848 55.9117 52.3689 55.9716C52.2462 56.4231 51.7682 56.6936 51.3036 56.5743L41.7353 54.1274L38.8531 53.3904L53.9209 24.5165L52.3966 55.7924Z" fill="#4ECAEF"/>
<g filter="url(#filter0_biif_99_5400)">
<path fill-rule="evenodd" clip-rule="evenodd" d="M41.5 79C62.2107 79 79 62.2107 79 41.5C79 20.7893 62.2107 4 41.5 4C20.7893 4 4 20.7893 4 41.5C4 62.2107 20.7893 79 41.5 79ZM37.811 59.2796L37.8109 59.2802V59.2797L37.811 59.2796ZM37.811 59.2796L41.0602 54.6752L38.6272 54.053L37.811 59.2796ZM37.9931 53.5051C37.9983 53.4897 38.0044 53.4747 38.0121 53.4602H38.0116C38.0121 53.4597 54 22.823 54 22.823C53.9908 22.4632 53.7346 22.1379 53.3819 22.0356C53.1344 21.9637 52.8602 22.0017 52.6462 22.1404C52.6449 22.1414 52.6436 22.1423 52.6423 22.1431C52.641 22.144 52.6397 22.1449 52.6385 22.1459L31.6264 51.8356L35.6104 60.607C35.6808 60.7592 35.8137 60.8844 35.9719 60.9493C36.2368 61.0581 36.5515 60.9872 36.7435 60.7811C36.8318 60.6868 36.8852 60.5641 36.9042 60.4388L37.9777 53.5645C37.9803 53.5481 37.9849 53.5321 37.9895 53.5166C37.9906 53.5126 37.9916 53.5091 37.9931 53.5051ZM19.0075 47.5445C18.9772 47.771 19.0393 47.9945 19.1826 48.1752C19.3006 48.3243 19.4675 48.4321 19.6528 48.48L31.0653 51.3995L50.7979 23.516L19.3422 46.9781C19.1569 47.1168 19.0378 47.3184 19.0075 47.5445ZM52.3689 55.9716C52.3848 55.9117 52.3941 55.8508 52.3966 55.7924L53.9209 24.5165L38.8531 53.3904L41.7353 54.1274L51.3036 56.5743C51.7682 56.6936 52.2462 56.4231 52.3689 55.9716Z" fill="white" fill-opacity="0.2"/>
</g>
<defs>
<filter id="filter0_biif_99_5400" x="-11" y="-11" width="105" height="105" filterUnits="userSpaceOnUse" color-interpolation-filters="sRGB">
<feFlood flood-opacity="0" result="BackgroundImageFix"/>
<feGaussianBlur in="BackgroundImageFix" stdDeviation="7.5"/>
<feComposite in2="SourceAlpha" operator="in" result="effect1_backgroundBlur_99_5400"/>
<feBlend mode="normal" in="SourceGraphic" in2="effect1_backgroundBlur_99_5400" result="shape"/>
<feColorMatrix in="SourceAlpha" type="matrix" values="0 0 0 0 0 0 0 0 0 0 0 0 0 0 0 0 0 0 127 0" result="hardAlpha"/>
<feOffset dy="-15"/>
<feGaussianBlur stdDeviation="7.5"/>
<feComposite in2="hardAlpha" operator="arithmetic" k2="-1" k3="1"/>
<feColorMatrix type="matrix" values="0 0 0 0 1 0 0 0 0 1 0 0 0 0 1 0 0 0 0.05 0"/>
<feBlend mode="normal" in2="shape" result="effect2_innerShadow_99_5400"/>
<feColorMatrix in="SourceAlpha" type="matrix" values="0 0 0 0 0 0 0 0 0 0 0 0 0 0 0 0 0 0 127 0" result="hardAlpha"/>
<feOffset dx="15" dy="-15"/>
<feGaussianBlur stdDeviation="7.5"/>
<feComposite in2="hardAlpha" operator="arithmetic" k2="-1" k3="1"/>
<feColorMatrix type="matrix" values="0 0 0 0 1 0 0 0 0 1 0 0 0 0 1 0 0 0 0.05 0"/>
<feBlend mode="normal" in2="effect2_innerShadow_99_5400" result="effect3_innerShadow_99_5400"/>
<feGaussianBlur stdDeviation="2" result="effect4_foregroundBlur_99_5400"/>
</filter>
</defs>
</svg>
