<svg width="24" height="24" viewBox="0 0 24 24" fill="none" xmlns="http://www.w3.org/2000/svg">
<path d="M12 16.3085C11.8667 16.3085 11.7377 16.2835 11.613 16.2335C11.4877 16.1835 11.3833 16.1169 11.3 16.0335L6.69999 11.4335C6.51665 11.2502 6.42499 11.0169 6.42499 10.7335C6.42499 10.4502 6.51665 10.2169 6.69999 10.0335C6.88332 9.85021 7.11665 9.75854 7.39999 9.75854C7.68332 9.75854 7.91665 9.85021 8.09999 10.0335L12 13.9335L15.9 10.0335C16.0833 9.85021 16.3167 9.75854 16.6 9.75854C16.8833 9.75854 17.1167 9.85021 17.3 10.0335C17.4833 10.2169 17.575 10.4502 17.575 10.7335C17.575 11.0169 17.4833 11.2502 17.3 11.4335L12.7 16.0335C12.6 16.1335 12.4917 16.2042 12.375 16.2455C12.2583 16.2875 12.1333 16.3085 12 16.3085Z" fill="#152644"/>
</svg>
