<svg width="24" height="24" viewBox="0 0 24 24" fill="none" xmlns="http://www.w3.org/2000/svg">
<path d="M16.3085 12C16.3085 12.1333 16.2835 12.2623 16.2335 12.387C16.1835 12.5123 16.1168 12.6166 16.0335 12.7L11.4335 17.3C11.2502 17.4833 11.0168 17.575 10.7335 17.575C10.4502 17.575 10.2168 17.4833 10.0335 17.3C9.85015 17.1166 9.75848 16.8833 9.75848 16.6C9.75848 16.3166 9.85015 16.0833 10.0335 15.9L13.9335 12L10.0335 8.09995C9.85015 7.91662 9.75848 7.68328 9.75848 7.39995C9.75848 7.11662 9.85015 6.88328 10.0335 6.69995C10.2168 6.51662 10.4502 6.42495 10.7335 6.42495C11.0168 6.42495 11.2502 6.51662 11.4335 6.69995L16.0335 11.3C16.1335 11.4 16.2042 11.5083 16.2455 11.625C16.2875 11.7416 16.3085 11.8666 16.3085 12Z" fill="#152644"/>
</svg>
