<svg width="24" height="24" viewBox="0 0 24 24" fill="none" xmlns="http://www.w3.org/2000/svg">
<path fill-rule="evenodd" clip-rule="evenodd" d="M18.1176 10.5205H5.53591C5.24368 10.5205 5.0065 10.2833 5.0065 9.99108C5.0065 9.69885 5.24368 9.46167 5.53591 9.46167H18.1176C18.4098 9.46167 18.647 9.69885 18.647 9.99108C18.647 10.2833 18.4098 10.5205 18.1176 10.5205" fill="#4EC3F9"/>
<path fill-rule="evenodd" clip-rule="evenodd" d="M14.9656 13.2771C14.6733 13.2771 14.4333 13.0399 14.4333 12.7477C14.4333 12.4554 14.667 12.2183 14.9592 12.2183H14.9656C15.2578 12.2183 15.495 12.4554 15.495 12.7477C15.495 13.0399 15.2578 13.2771 14.9656 13.2771" fill="#4EC3F9"/>
<path fill-rule="evenodd" clip-rule="evenodd" d="M11.8332 13.2771C11.541 13.2771 11.301 13.0399 11.301 12.7477C11.301 12.4554 11.5346 12.2183 11.8269 12.2183H11.8332C12.1255 12.2183 12.3626 12.4554 12.3626 12.7477C12.3626 13.0399 12.1255 13.2771 11.8332 13.2771" fill="#4EC3F9"/>
<path fill-rule="evenodd" clip-rule="evenodd" d="M8.69429 13.2771C8.40205 13.2771 8.16135 13.0399 8.16135 12.7477C8.16135 12.4554 8.3957 12.2183 8.68793 12.2183H8.69429C8.98652 12.2183 9.2237 12.4554 9.2237 12.7477C9.2237 13.0399 8.98652 13.2771 8.69429 13.2771" fill="#4EC3F9"/>
<path fill-rule="evenodd" clip-rule="evenodd" d="M14.9656 16.0207C14.6733 16.0207 14.4333 15.7836 14.4333 15.4913C14.4333 15.1991 14.667 14.9619 14.9592 14.9619H14.9656C15.2578 14.9619 15.495 15.1991 15.495 15.4913C15.495 15.7836 15.2578 16.0207 14.9656 16.0207" fill="#4EC3F9"/>
<path fill-rule="evenodd" clip-rule="evenodd" d="M11.8332 16.0207C11.541 16.0207 11.301 15.7836 11.301 15.4913C11.301 15.1991 11.5346 14.9619 11.8269 14.9619H11.8332C12.1255 14.9619 12.3626 15.1991 12.3626 15.4913C12.3626 15.7836 12.1255 16.0207 11.8332 16.0207" fill="#4EC3F9"/>
<path fill-rule="evenodd" clip-rule="evenodd" d="M8.69429 16.0207C8.40205 16.0207 8.16135 15.7836 8.16135 15.4913C8.16135 15.1991 8.3957 14.9619 8.68793 14.9619H8.69429C8.98652 14.9619 9.2237 15.1991 9.2237 15.4913C9.2237 15.7836 8.98652 16.0207 8.69429 16.0207" fill="#4EC3F9"/>
<path fill-rule="evenodd" clip-rule="evenodd" d="M14.6778 7.61699C14.3856 7.61699 14.1484 7.37981 14.1484 7.08758V4.76452C14.1484 4.47228 14.3856 4.23511 14.6778 4.23511C14.97 4.23511 15.2072 4.47228 15.2072 4.76452V7.08758C15.2072 7.37981 14.97 7.61699 14.6778 7.61699" fill="#4EC3F9"/>
<path fill-rule="evenodd" clip-rule="evenodd" d="M8.97552 7.61699C8.68328 7.61699 8.44611 7.37981 8.44611 7.08758V4.76452C8.44611 4.47228 8.68328 4.23511 8.97552 4.23511C9.26775 4.23511 9.50493 4.47228 9.50493 4.76452V7.08758C9.50493 7.37981 9.26775 7.61699 8.97552 7.61699" fill="#4EC3F9"/>
<mask id="mask0_63_5255" style="mask-type:luminance" maskUnits="userSpaceOnUse" x="4" y="5" width="15" height="15">
<path fill-rule="evenodd" clip-rule="evenodd" d="M4.94119 5.34985H18.7059V19.4117H4.94119V5.34985Z" fill="white"/>
</mask>
<g mask="url(#mask0_63_5255)">
<path fill-rule="evenodd" clip-rule="evenodd" d="M8.83837 6.40868C7.00802 6.40868 6.00002 7.38491 6.00002 9.15738V15.5449C6.00002 17.3562 7.00802 18.3529 8.83837 18.3529H14.8087C16.6391 18.3529 17.6471 17.3746 17.6471 15.5986V9.15738C17.6499 8.28562 17.4155 7.60797 16.9504 7.14209C16.4718 6.66209 15.7341 6.40868 14.8151 6.40868H8.83837ZM14.8087 19.4117H8.83837C6.43484 19.4117 4.94119 17.9301 4.94119 15.5449V9.15738C4.94119 6.80821 6.43484 5.34985 8.83837 5.34985H14.8151C16.0214 5.34985 17.0188 5.71127 17.7 6.39385C18.3614 7.05809 18.7094 8.01315 18.7059 9.1588V15.5986C18.7059 17.9506 17.2123 19.4117 14.8087 19.4117V19.4117Z" fill="#4EC3F9"/>
</g>
</svg>
