<svg width="12" height="12" viewBox="0 0 14 14" fill="none" xmlns="http://www.w3.org/2000/svg">
<path fill-rule="evenodd" clip-rule="evenodd" d="M0.000767066 3.47689C0.000882768 1.55666 1.55763 9.37949e-05 3.47787 0.000209497L9.5233 0.000573759C11.4435 0.00068946 13.0001 1.55744 13 3.47768L12.9996 9.52311C12.9995 11.4433 11.4428 12.9999 9.52252 12.9998L3.47708 12.9994C1.55685 12.9993 0.000287102 11.4426 0.000402804 9.52232L0.000767066 3.47689ZM3.47781 0.907225C2.05851 0.907139 0.907868 2.05764 0.907782 3.47694L0.907418 9.52238C0.907333 10.9417 2.05783 12.0923 3.47714 12.0924L9.52257 12.0928C10.9419 12.0929 12.0925 10.9424 12.0926 9.52306L12.093 3.47762C12.0931 2.05832 10.9426 0.907675 9.52325 0.907589L3.47781 0.907225Z" fill="#50D4E5"/>
<path d="M7.10437 3.47626C7.10437 3.81021 6.83365 4.08094 6.4997 4.08094C6.16574 4.08094 5.89502 3.81021 5.89502 3.47626C5.89502 3.14231 6.16574 2.87158 6.4997 2.87158C6.83365 2.87158 7.10437 3.14231 7.10437 3.47626Z" fill="#50D4E5"/>
<path d="M6.49951 5.29004V9.52278" stroke="#50D4E5" stroke-width="1.11429" stroke-linecap="round"/>
</svg>
