<svg width="16" height="17" viewBox="0 0 16 17" fill="none" xmlns="http://www.w3.org/2000/svg">
<path fill-rule="evenodd" clip-rule="evenodd" d="M0.966797 5.8335C0.966797 4.45278 2.08609 3.3335 3.4668 3.3335H12.5335C13.9142 3.3335 15.0335 4.45278 15.0335 5.8335V6.63337C15.0335 6.90958 14.8095 7.1335 14.5333 7.1335C13.7785 7.1335 13.1667 7.74537 13.1667 8.50016C13.1667 9.25495 13.7785 9.86683 14.5333 9.86683C14.8096 9.86683 15.0335 10.0908 15.0335 10.367V11.1668C15.0335 12.5475 13.9142 13.6668 12.5335 13.6668H3.4668C2.08609 13.6668 0.966797 12.5475 0.966797 11.1668V10.4335C0.966797 10.1151 1.22253 9.8763 1.51596 9.86596C2.24774 9.84019 2.83333 9.23845 2.83333 8.50016C2.83333 7.76187 2.24774 7.16014 1.51596 7.13436C1.22253 7.12403 0.966797 6.88526 0.966797 6.56683V5.8335ZM3.4668 4.3335C2.63837 4.3335 1.9668 5.00507 1.9668 5.8335V6.18648C3.0338 6.41607 3.83333 7.36466 3.83333 8.50016C3.83333 9.63566 3.0338 10.5843 1.9668 10.8138V11.1668C1.9668 11.9953 2.63837 12.6668 3.4668 12.6668H12.5335C13.3619 12.6668 14.0335 11.9953 14.0335 11.1668V10.8139C12.9665 10.5845 12.1667 9.63574 12.1667 8.50016C12.1667 7.36458 12.9665 6.4158 14.0335 6.18638V5.8335C14.0335 5.00507 13.3619 4.3335 12.5335 4.3335H3.4668Z" fill="#50D4E5"/>
<path fill-rule="evenodd" clip-rule="evenodd" d="M9.86719 3.80029C10.1433 3.80029 10.3672 4.02415 10.3672 4.30029V12.7003C10.3672 12.9764 10.1433 13.2003 9.86719 13.2003C9.59105 13.2003 9.36719 12.9764 9.36719 12.7003V4.30029C9.36719 4.02415 9.59105 3.80029 9.86719 3.80029Z" fill="#50D4E5"/>
</svg>
