<svg width="16" height="17" viewBox="0 0 16 17" fill="none" xmlns="http://www.w3.org/2000/svg">
<path fill-rule="evenodd" clip-rule="evenodd" d="M8.00016 2.3335C4.59441 2.3335 1.8335 5.09441 1.8335 8.50016C1.8335 11.9059 4.59441 14.6668 8.00016 14.6668C11.4059 14.6668 14.1668 11.9059 14.1668 8.50016C14.1668 5.09441 11.4059 2.3335 8.00016 2.3335ZM0.833496 8.50016C0.833496 4.54212 4.04212 1.3335 8.00016 1.3335C11.9582 1.3335 15.1668 4.54212 15.1668 8.50016C15.1668 12.4582 11.9582 15.6668 8.00016 15.6668C4.04212 15.6668 0.833496 12.4582 0.833496 8.50016Z" fill="#50D4E5"/>
<path fill-rule="evenodd" clip-rule="evenodd" d="M8 4C8.27614 4 8.5 4.22386 8.5 4.5V8.59915L10.3201 10.1159C10.5322 10.2927 10.5609 10.608 10.3841 10.8201C10.2073 11.0322 9.89205 11.0609 9.67991 10.8841L7.67991 9.21744C7.56591 9.12245 7.5 8.98172 7.5 8.83333V4.5C7.5 4.22386 7.72386 4 8 4Z" fill="#50D4E5"/>
</svg>
