<svg width="16" height="17" viewBox="0 0 16 17" fill="none" xmlns="http://www.w3.org/2000/svg">
<path fill-rule="evenodd" clip-rule="evenodd" d="M6.93428 1.98018C7.57172 1.52485 8.42804 1.52483 9.06549 1.98014L13.8407 5.39086C14.6729 5.98528 15.1668 6.94502 15.1668 7.96772V13.1668C15.1668 14.5475 14.0475 15.6668 12.6668 15.6668H10.7618C9.74927 15.6668 8.92846 14.846 8.92846 13.8335V12.8335C8.92846 12.5573 8.7046 12.3335 8.42846 12.3335H7.57131C7.29517 12.3335 7.07131 12.5573 7.07131 12.8335V13.8335C7.07131 14.846 6.2505 15.6668 5.23798 15.6668H3.3335C1.95278 15.6668 0.833496 14.5475 0.833496 13.1668V7.96765C0.833496 6.945 1.32737 5.98529 2.15952 5.39087L6.93428 1.98018ZM8.48427 2.79388C8.19452 2.58693 7.80528 2.58693 7.51554 2.7939L2.74078 6.20459C2.17141 6.6113 1.8335 7.26794 1.8335 7.96765V13.1668C1.8335 13.9952 2.50507 14.6668 3.3335 14.6668H5.23798C5.69822 14.6668 6.07131 14.2937 6.07131 13.8335V12.8335C6.07131 12.005 6.74289 11.3335 7.57131 11.3335H8.42846C9.25688 11.3335 9.92846 12.005 9.92846 12.8335V13.8335C9.92846 14.2937 10.3016 14.6668 10.7618 14.6668H12.6668C13.4953 14.6668 14.1668 13.9952 14.1668 13.1668V7.96772C14.1668 7.26798 13.8289 6.61131 13.2595 6.20461L8.48427 2.79388Z" fill="#50D4E5"/>
</svg>
