<svg width="90" height="90" viewBox="0 0 90 90" fill="none" xmlns="http://www.w3.org/2000/svg">
<g clip-path="url(#clip0_248_5055)">
<g filter="url(#filter0_b_248_5055)">
<path d="M40.9476 71.4865L42.1604 63.8467L45.7752 64.7561L40.9476 71.4865ZM41.2466 62.9804C41.2351 63.0015 41.226 63.0234 41.2184 63.046C41.2161 63.0518 41.2146 63.0569 41.213 63.0628C41.2062 63.0854 41.1993 63.1087 41.1955 63.1328L39.6005 73.1798C39.5723 73.3629 39.493 73.5423 39.3618 73.6801C39.0765 73.9813 38.6089 74.0849 38.2153 73.9259C37.9804 73.8311 37.7829 73.648 37.6784 73.4256L31.7593 60.6059L62.9771 17.2132C62.981 17.2103 62.9848 17.2081 62.9886 17.2052C63.3067 17.0024 63.714 16.947 64.0816 17.052C64.6057 17.2015 64.9863 17.677 65 18.2028L41.2466 62.9804ZM13.2712 55.256C13.0584 54.992 12.9661 54.6653 13.0111 54.3342C13.0561 54.0038 13.2331 53.7092 13.5085 53.5065L60.2426 19.2157L30.9255 59.9685L13.9699 55.7016C13.6946 55.6316 13.4467 55.474 13.2712 55.256ZM62.6179 66.3889C62.6141 66.4743 62.6003 66.5632 62.5767 66.6507C62.3944 67.3107 61.6842 67.706 60.9939 67.5317L46.7782 63.9554L42.496 62.8783L64.8825 20.6779L62.6179 66.3889Z" fill="#4EC3F9" fill-opacity="0.2"/>
<path d="M40.9476 71.4865L42.1604 63.8467L45.7752 64.7561L40.9476 71.4865ZM41.2466 62.9804C41.2351 63.0015 41.226 63.0234 41.2184 63.046C41.2161 63.0518 41.2146 63.0569 41.213 63.0628C41.2062 63.0854 41.1993 63.1087 41.1955 63.1328L39.6005 73.1798C39.5723 73.3629 39.493 73.5423 39.3618 73.6801C39.0765 73.9813 38.6089 74.0849 38.2153 73.9259C37.9804 73.8311 37.7829 73.648 37.6784 73.4256L31.7593 60.6059L62.9771 17.2132C62.981 17.2103 62.9848 17.2081 62.9886 17.2052C63.3067 17.0024 63.714 16.947 64.0816 17.052C64.6057 17.2015 64.9863 17.677 65 18.2028L41.2466 62.9804ZM13.2712 55.256C13.0584 54.992 12.9661 54.6653 13.0111 54.3342C13.0561 54.0038 13.2331 53.7092 13.5085 53.5065L60.2426 19.2157L30.9255 59.9685L13.9699 55.7016C13.6946 55.6316 13.4467 55.474 13.2712 55.256ZM62.6179 66.3889C62.6141 66.4743 62.6003 66.5632 62.5767 66.6507C62.3944 67.3107 61.6842 67.706 60.9939 67.5317L46.7782 63.9554L42.496 62.8783L64.8825 20.6779L62.6179 66.3889Z" fill="url(#paint0_radial_248_5055)" fill-opacity="0.6"/>
<path d="M13.3491 55.1932L13.3492 55.1933C13.5106 55.394 13.7395 55.5398 13.9943 55.6046L13.3491 55.1932ZM13.3491 55.1932C13.1532 54.9503 13.069 54.651 13.1102 54.3477C13.1515 54.0449 13.3136 53.7742 13.5678 53.587L59.7927 19.6699L30.8841 59.8549L13.9946 55.6047L13.3491 55.1932ZM39.5018 73.1642L39.5017 73.1646C39.4762 73.3302 39.4047 73.49 39.2894 73.6112L39.2892 73.6114C39.0323 73.8825 38.6084 73.9768 38.2528 73.8332L38.2528 73.8332C38.0402 73.7474 37.8623 73.5818 37.769 73.3833C37.7689 73.3833 37.7689 73.3832 37.7689 73.3831L31.8745 60.6169L63.048 17.2859C63.3404 17.102 63.7153 17.0514 64.0542 17.1482L64.0542 17.1482C64.5299 17.2839 64.875 17.7101 64.899 18.1797L41.1586 62.9328C41.1585 62.933 41.1584 62.9333 41.1582 62.9335C41.1442 62.9595 41.1332 62.9858 41.1243 63.012C41.1227 63.0163 41.1212 63.0205 41.12 63.0244C41.1188 63.0283 41.1178 63.0319 41.1168 63.0354C41.1101 63.0576 41.1016 63.0863 41.0967 63.1171L39.5018 73.1642ZM62.518 66.384L62.518 66.3845C62.5145 66.4623 62.5019 66.544 62.4802 66.6245C62.3131 67.2285 61.6594 67.5966 61.0184 67.4347L61.0183 67.4347L46.8026 63.8584L42.6441 62.8124L64.7604 21.1215L62.518 66.384ZM41.1126 71.0849L42.242 63.9704L45.6082 64.8172L41.1126 71.0849Z" stroke="url(#paint1_linear_248_5055)" stroke-width="0.2"/>
</g>
<g filter="url(#filter1_b_248_5055)">
<path fill-rule="evenodd" clip-rule="evenodd" d="M45 100C75.3757 100 100 75.3757 100 45C100 14.6243 75.3757 -10 45 -10C14.6243 -10 -10 14.6243 -10 45C-10 75.3757 14.6243 100 45 100ZM42.0088 63.9L40.8116 71.5656L45.5772 64.8126L42.0088 63.9ZM41.0788 63.0964C41.0863 63.0738 41.0954 63.0518 41.1067 63.0306H41.1059C41.1067 63.0298 64.5556 18.0959 64.5556 18.0959C64.542 17.5683 64.1663 17.0911 63.649 16.9411C63.286 16.8357 62.8839 16.8913 62.5699 17.0948C62.568 17.0962 62.5661 17.0975 62.5643 17.0988C62.5624 17.1001 62.5605 17.1014 62.5586 17.1028L31.741 60.6478L37.5842 73.5125C37.6873 73.7357 37.8824 73.9194 38.1143 74.0145C38.5028 74.174 38.9644 74.0701 39.246 73.7679C39.3755 73.6296 39.4539 73.4495 39.4817 73.2659L41.0562 63.1835C41.06 63.1594 41.0668 63.136 41.0735 63.1133C41.0751 63.1074 41.0766 63.1023 41.0788 63.0964ZM13.2332 54.3541C13.1888 54.6863 13.2799 55.0142 13.49 55.2791C13.6632 55.4979 13.9079 55.656 14.1797 55.7263L30.918 60.0081L59.8592 19.1124L13.7242 53.5235C13.4523 53.7269 13.2776 54.0226 13.2332 54.3541ZM62.1633 66.7138C62.1867 66.626 62.2002 66.5367 62.204 66.4511L64.4396 20.5797L42.3401 62.9281L46.5674 64.009L60.6009 67.5979C61.2823 67.7728 61.9833 67.3761 62.1633 66.7138Z" fill="url(#paint2_radial_248_5055)" fill-opacity="0.3"/>
</g>
</g>
<defs>
<filter id="filter0_b_248_5055" x="11" y="15" width="56" height="61" filterUnits="userSpaceOnUse" color-interpolation-filters="sRGB">
<feFlood flood-opacity="0" result="BackgroundImageFix"/>
<feGaussianBlur in="BackgroundImageFix" stdDeviation="1"/>
<feComposite in2="SourceAlpha" operator="in" result="effect1_backgroundBlur_248_5055"/>
<feBlend mode="normal" in="SourceGraphic" in2="effect1_backgroundBlur_248_5055" result="shape"/>
</filter>
<filter id="filter1_b_248_5055" x="-14" y="-14" width="118" height="118" filterUnits="userSpaceOnUse" color-interpolation-filters="sRGB">
<feFlood flood-opacity="0" result="BackgroundImageFix"/>
<feGaussianBlur in="BackgroundImageFix" stdDeviation="2"/>
<feComposite in2="SourceAlpha" operator="in" result="effect1_backgroundBlur_248_5055"/>
<feBlend mode="normal" in="SourceGraphic" in2="effect1_backgroundBlur_248_5055" result="shape"/>
</filter>
<radialGradient id="paint0_radial_248_5055" cx="0" cy="0" r="1" gradientUnits="userSpaceOnUse" gradientTransform="translate(18.5714 55.9744) rotate(-27.9815) scale(74.2917 155.363)">
<stop stop-color="#4EC3F9"/>
<stop offset="0.299717" stop-color="#8FF2FF" stop-opacity="0.69"/>
<stop offset="0.518045" stop-color="#50D4E5" stop-opacity="0.75"/>
<stop offset="0.78993" stop-color="#4ECAEF" stop-opacity="0.77"/>
</radialGradient>
<linearGradient id="paint1_linear_248_5055" x1="17.2512" y1="37.7385" x2="39.6149" y2="73.6167" gradientUnits="userSpaceOnUse">
<stop stop-color="white" stop-opacity="0.64"/>
<stop offset="1" stop-color="white" stop-opacity="0.24"/>
</linearGradient>
<radialGradient id="paint2_radial_248_5055" cx="0" cy="0" r="1" gradientUnits="userSpaceOnUse" gradientTransform="translate(45 45) rotate(-180) scale(55)">
<stop offset="0.78125" stop-color="white"/>
<stop offset="0.976083" stop-color="white" stop-opacity="0.2"/>
</radialGradient>
<clipPath id="clip0_248_5055">
<rect width="90" height="90" fill="white"/>
</clipPath>
</defs>
</svg>
