<svg width="70" height="70" viewBox="0 0 70 70" fill="none" xmlns="http://www.w3.org/2000/svg">
<path d="M47.8599 60.771L47.8599 60.771L30.6724 51.5193L30.625 51.4938L30.5776 51.5193L13.3901 60.771L13.3901 60.771C12.9298 61.019 12.4073 61.1498 11.875 61.1498C11.3427 61.1498 10.8202 61.019 10.36 60.771C9.89977 60.523 9.51848 60.1668 9.25374 59.7389C8.98905 59.311 8.85001 58.8262 8.85 58.3332V11.6666C8.85247 9.37544 9.82865 7.1773 11.5668 5.55498C13.3053 3.93244 15.6638 3.0188 18.1251 3.0165L43.125 3.0165C45.5862 3.01881 47.9447 3.93245 49.6832 5.55498C51.4214 7.17731 52.3976 9.37547 52.4 11.6666V58.3332C52.4 59.0779 52.0831 59.7936 51.5165 60.3225C50.9496 60.8515 50.1794 61.1498 49.375 61.1498C48.8427 61.1498 48.3202 61.019 47.8599 60.771Z" fill="#4EC3F9" fill-opacity="0.6"/>
<path d="M47.8599 60.771L47.8599 60.771L30.6724 51.5193L30.625 51.4938L30.5776 51.5193L13.3901 60.771L13.3901 60.771C12.9298 61.019 12.4073 61.1498 11.875 61.1498C11.3427 61.1498 10.8202 61.019 10.36 60.771C9.89977 60.523 9.51848 60.1668 9.25374 59.7389C8.98905 59.311 8.85001 58.8262 8.85 58.3332V11.6666C8.85247 9.37544 9.82865 7.1773 11.5668 5.55498C13.3053 3.93244 15.6638 3.0188 18.1251 3.0165L43.125 3.0165C45.5862 3.01881 47.9447 3.93245 49.6832 5.55498C51.4214 7.17731 52.3976 9.37547 52.4 11.6666V58.3332C52.4 59.0779 52.0831 59.7936 51.5165 60.3225C50.9496 60.8515 50.1794 61.1498 49.375 61.1498C48.8427 61.1498 48.3202 61.019 47.8599 60.771Z" fill="url(#paint0_radial_214_4933)" fill-opacity="0.8"/>
<path d="M47.8599 60.771L47.8599 60.771L30.6724 51.5193L30.625 51.4938L30.5776 51.5193L13.3901 60.771L13.3901 60.771C12.9298 61.019 12.4073 61.1498 11.875 61.1498C11.3427 61.1498 10.8202 61.019 10.36 60.771C9.89977 60.523 9.51848 60.1668 9.25374 59.7389C8.98905 59.311 8.85001 58.8262 8.85 58.3332V11.6666C8.85247 9.37544 9.82865 7.1773 11.5668 5.55498C13.3053 3.93244 15.6638 3.0188 18.1251 3.0165L43.125 3.0165C45.5862 3.01881 47.9447 3.93245 49.6832 5.55498C51.4214 7.17731 52.3976 9.37547 52.4 11.6666V58.3332C52.4 59.0779 52.0831 59.7936 51.5165 60.3225C50.9496 60.8515 50.1794 61.1498 49.375 61.1498C48.8427 61.1498 48.3202 61.019 47.8599 60.771Z" stroke="url(#paint1_linear_214_4933)" stroke-width="0.2"/>
<g filter="url(#filter0_bii_214_4933)">
<path d="M55.2095 67.0833C54.6609 67.0833 54.122 66.9485 53.647 66.6925L36.4595 57.4408L19.272 66.6925C18.7969 66.9485 18.258 67.0833 17.7095 67.0833C17.1609 67.0833 16.6221 66.9485 16.147 66.6925C15.6719 66.4365 15.2775 66.0684 15.0032 65.625C14.7289 65.1816 14.5845 64.6786 14.5845 64.1667V17.5C14.587 15.1801 15.5755 12.9558 17.3331 11.3154C19.0907 9.67493 21.4738 8.75232 23.9595 8.75H48.9595C51.4451 8.75232 53.8282 9.67493 55.5859 11.3154C57.3435 12.9558 58.332 15.1801 58.3345 17.5V64.1667C58.3345 64.9402 58.0052 65.6821 57.4192 66.2291C56.8331 66.776 56.0383 67.0833 55.2095 67.0833Z" fill="white" fill-opacity="0.2"/>
<path d="M53.6944 66.6045L53.6944 66.6044L36.5069 57.3528L36.4595 57.3273L36.4121 57.3528L19.2246 66.6044L19.2245 66.6045C18.7643 66.8525 18.2418 66.9833 17.7095 66.9833C17.1772 66.9833 16.6547 66.8525 16.1944 66.6045C15.7342 66.3565 15.3529 66.0003 15.0882 65.5724C14.8235 65.1445 14.6845 64.6597 14.6845 64.1667V17.5001C14.6869 15.2089 15.6631 13.0108 17.4013 11.3885C19.1398 9.76593 21.4983 8.85229 23.9596 8.85L48.9594 8.85C51.4207 8.85231 53.7792 9.76595 55.5176 11.3885C57.2558 13.0108 58.232 15.209 58.2345 17.5001V64.1667C58.2345 64.9114 57.9176 65.6271 57.3509 66.156C56.7841 66.685 56.0139 66.9833 55.2095 66.9833C54.6772 66.9833 54.1546 66.8525 53.6944 66.6045Z" stroke="url(#paint2_linear_214_4933)" stroke-width="0.2"/>
</g>
<defs>
<filter id="filter0_bii_214_4933" x="4.58447" y="-1.25" width="63.75" height="78.3335" filterUnits="userSpaceOnUse" color-interpolation-filters="sRGB">
<feFlood flood-opacity="0" result="BackgroundImageFix"/>
<feGaussianBlur in="BackgroundImageFix" stdDeviation="5"/>
<feComposite in2="SourceAlpha" operator="in" result="effect1_backgroundBlur_214_4933"/>
<feBlend mode="normal" in="SourceGraphic" in2="effect1_backgroundBlur_214_4933" result="shape"/>
<feColorMatrix in="SourceAlpha" type="matrix" values="0 0 0 0 0 0 0 0 0 0 0 0 0 0 0 0 0 0 127 0" result="hardAlpha"/>
<feOffset dy="-10"/>
<feGaussianBlur stdDeviation="5"/>
<feComposite in2="hardAlpha" operator="arithmetic" k2="-1" k3="1"/>
<feColorMatrix type="matrix" values="0 0 0 0 1 0 0 0 0 1 0 0 0 0 1 0 0 0 0.05 0"/>
<feBlend mode="normal" in2="shape" result="effect2_innerShadow_214_4933"/>
<feColorMatrix in="SourceAlpha" type="matrix" values="0 0 0 0 0 0 0 0 0 0 0 0 0 0 0 0 0 0 127 0" result="hardAlpha"/>
<feOffset dx="-10" dy="-10"/>
<feGaussianBlur stdDeviation="5"/>
<feComposite in2="hardAlpha" operator="arithmetic" k2="-1" k3="1"/>
<feColorMatrix type="matrix" values="0 0 0 0 1 0 0 0 0 1 0 0 0 0 1 0 0 0 0.05 0"/>
<feBlend mode="normal" in2="effect2_innerShadow_214_4933" result="effect3_innerShadow_214_4933"/>
</filter>
<radialGradient id="paint0_radial_214_4933" cx="0" cy="0" r="1" gradientUnits="userSpaceOnUse" gradientTransform="translate(13.4375 42.8026) rotate(-32.8727) scale(65.7216 151.216)">
<stop stop-color="#69D4EE"/>
<stop offset="0.299717" stop-color="#8FF2FF" stop-opacity="0.57"/>
<stop offset="0.518045" stop-color="#50D4E5" stop-opacity="0.75"/>
<stop offset="0.78993" stop-color="#4ECAEF" stop-opacity="0.77"/>
</radialGradient>
<linearGradient id="paint1_linear_214_4933" x1="12.3267" y1="24.1401" x2="36.8719" y2="56.5135" gradientUnits="userSpaceOnUse">
<stop stop-color="white" stop-opacity="0.64"/>
<stop offset="1" stop-color="white" stop-opacity="0.24"/>
</linearGradient>
<linearGradient id="paint2_linear_214_4933" x1="18.1612" y1="29.9736" x2="42.7064" y2="62.347" gradientUnits="userSpaceOnUse">
<stop stop-color="white" stop-opacity="0.64"/>
<stop offset="1" stop-color="white" stop-opacity="0.24"/>
</linearGradient>
</defs>
</svg>
