<svg width="70" height="70" viewBox="0 0 70 70" fill="none" xmlns="http://www.w3.org/2000/svg">
<path d="M52.6002 20.4165V11.7665H55.4168C57.711 11.7665 59.9111 12.6778 61.5333 14.3C63.1555 15.9222 64.0668 18.1224 64.0668 20.4165V31.9832H5.9335V20.4165C5.9335 18.1224 6.84483 15.9222 8.46702 14.3C10.0892 12.6778 12.2894 11.7665 14.5835 11.7665H17.4002V20.4165C17.4002 21.2166 17.718 21.9839 18.2837 22.5496C18.8495 23.1153 19.6168 23.4332 20.4168 23.4332C21.2169 23.4332 21.9842 23.1153 22.5499 22.5496C23.1157 21.9839 23.4335 21.2166 23.4335 20.4165V11.7665H46.5668V20.4165C46.5668 21.2166 46.8847 21.9839 47.4504 22.5496C48.0161 23.1153 48.7834 23.4332 49.5835 23.4332C50.3836 23.4332 51.1509 23.1153 51.7166 22.5496C52.2823 21.9839 52.6002 21.2166 52.6002 20.4165Z" fill="#50D4E5" fill-opacity="0.8"/>
<path d="M52.6002 20.4165V11.7665H55.4168C57.711 11.7665 59.9111 12.6778 61.5333 14.3C63.1555 15.9222 64.0668 18.1224 64.0668 20.4165V31.9832H5.9335V20.4165C5.9335 18.1224 6.84483 15.9222 8.46702 14.3C10.0892 12.6778 12.2894 11.7665 14.5835 11.7665H17.4002V20.4165C17.4002 21.2166 17.718 21.9839 18.2837 22.5496C18.8495 23.1153 19.6168 23.4332 20.4168 23.4332C21.2169 23.4332 21.9842 23.1153 22.5499 22.5496C23.1157 21.9839 23.4335 21.2166 23.4335 20.4165V11.7665H46.5668V20.4165C46.5668 21.2166 46.8847 21.9839 47.4504 22.5496C48.0161 23.1153 48.7834 23.4332 49.5835 23.4332C50.3836 23.4332 51.1509 23.1153 51.7166 22.5496C52.2823 21.9839 52.6002 21.2166 52.6002 20.4165Z" fill="url(#paint0_radial_214_4923)" fill-opacity="0.6"/>
<path d="M52.6002 20.4165V11.7665H55.4168C57.711 11.7665 59.9111 12.6778 61.5333 14.3C63.1555 15.9222 64.0668 18.1224 64.0668 20.4165V31.9832H5.9335V20.4165C5.9335 18.1224 6.84483 15.9222 8.46702 14.3C10.0892 12.6778 12.2894 11.7665 14.5835 11.7665H17.4002V20.4165C17.4002 21.2166 17.718 21.9839 18.2837 22.5496C18.8495 23.1153 19.6168 23.4332 20.4168 23.4332C21.2169 23.4332 21.9842 23.1153 22.5499 22.5496C23.1157 21.9839 23.4335 21.2166 23.4335 20.4165V11.7665H46.5668V20.4165C46.5668 21.2166 46.8847 21.9839 47.4504 22.5496C48.0161 23.1153 48.7834 23.4332 49.5835 23.4332C50.3836 23.4332 51.1509 23.1153 51.7166 22.5496C52.2823 21.9839 52.6002 21.2166 52.6002 20.4165Z" stroke="url(#paint1_linear_214_4923)" stroke-width="0.2"/>
<g filter="url(#filter0_bii_214_4923)">
<path d="M64.1668 29.1668H5.8335V55.4168C5.8335 57.7375 6.75537 59.9631 8.39631 61.604C10.0373 63.245 12.2629 64.1668 14.5835 64.1668H55.4168C57.7375 64.1668 59.9631 63.245 61.604 61.604C63.245 59.9631 64.1668 57.7375 64.1668 55.4168V29.1668ZM20.4168 23.3335C19.6433 23.3335 18.9014 23.0262 18.3544 22.4792C17.8075 21.9322 17.5002 21.1904 17.5002 20.4168V8.75016C17.5002 7.97661 17.8075 7.23475 18.3544 6.68777C18.9014 6.14079 19.6433 5.8335 20.4168 5.8335C21.1904 5.8335 21.9322 6.14079 22.4792 6.68777C23.0262 7.23475 23.3335 7.97661 23.3335 8.75016V20.4168C23.3335 21.1904 23.0262 21.9322 22.4792 22.4792C21.9322 23.0262 21.1904 23.3335 20.4168 23.3335ZM49.5835 23.3335C48.8099 23.3335 48.0681 23.0262 47.5211 22.4792C46.9741 21.9322 46.6668 21.1904 46.6668 20.4168V8.75016C46.6668 7.97661 46.9741 7.23475 47.5211 6.68777C48.0681 6.14079 48.8099 5.8335 49.5835 5.8335C50.357 5.8335 51.0989 6.14079 51.6459 6.68777C52.1929 7.23475 52.5002 7.97661 52.5002 8.75016V20.4168C52.5002 21.1904 52.1929 21.9322 51.6459 22.4792C51.0989 23.0262 50.357 23.3335 49.5835 23.3335Z" fill="#91E2D8" fill-opacity="0.2"/>
<path d="M5.9335 55.4168V29.2668H64.0668V55.4168C64.0668 57.711 63.1555 59.9111 61.5333 61.5333C59.9111 63.1555 57.711 64.0668 55.4168 64.0668H14.5835C12.2894 64.0668 10.0892 63.1555 8.46702 61.5333C6.84483 59.9111 5.9335 57.711 5.9335 55.4168ZM20.4168 23.2335C19.6698 23.2335 18.9534 22.9367 18.4251 22.4085C17.8969 21.8803 17.6002 21.1639 17.6002 20.4168V8.75016C17.6002 8.00314 17.8969 7.28671 18.4251 6.75848C18.9534 6.23025 19.6698 5.9335 20.4168 5.9335C21.1639 5.9335 21.8803 6.23025 22.4085 6.75848C22.9367 7.28671 23.2335 8.00314 23.2335 8.75016V20.4168C23.2335 21.1639 22.9367 21.8803 22.4085 22.4085C21.8803 22.9367 21.1639 23.2335 20.4168 23.2335ZM49.5835 23.2335C48.8365 23.2335 48.12 22.9367 47.5918 22.4085C47.0636 21.8803 46.7668 21.1639 46.7668 20.4168V8.75016C46.7668 8.00314 47.0636 7.28671 47.5918 6.75848C48.12 6.23025 48.8365 5.9335 49.5835 5.9335C50.3305 5.9335 51.047 6.23025 51.5752 6.75848C52.1034 7.28671 52.4002 8.00314 52.4002 8.75016V20.4168C52.4002 21.1639 52.1034 21.8803 51.5752 22.4085C51.047 22.9367 50.3305 23.2335 49.5835 23.2335Z" stroke="url(#paint2_linear_214_4923)" stroke-width="0.2"/>
</g>
<defs>
<filter id="filter0_bii_214_4923" x="-4.1665" y="-4.1665" width="78.3335" height="78.3335" filterUnits="userSpaceOnUse" color-interpolation-filters="sRGB">
<feFlood flood-opacity="0" result="BackgroundImageFix"/>
<feGaussianBlur in="BackgroundImageFix" stdDeviation="5"/>
<feComposite in2="SourceAlpha" operator="in" result="effect1_backgroundBlur_214_4923"/>
<feBlend mode="normal" in="SourceGraphic" in2="effect1_backgroundBlur_214_4923" result="shape"/>
<feColorMatrix in="SourceAlpha" type="matrix" values="0 0 0 0 0 0 0 0 0 0 0 0 0 0 0 0 0 0 127 0" result="hardAlpha"/>
<feOffset dy="-10"/>
<feGaussianBlur stdDeviation="5"/>
<feComposite in2="hardAlpha" operator="arithmetic" k2="-1" k3="1"/>
<feColorMatrix type="matrix" values="0 0 0 0 1 0 0 0 0 1 0 0 0 0 1 0 0 0 0.05 0"/>
<feBlend mode="normal" in2="shape" result="effect2_innerShadow_214_4923"/>
<feColorMatrix in="SourceAlpha" type="matrix" values="0 0 0 0 0 0 0 0 0 0 0 0 0 0 0 0 0 0 127 0" result="hardAlpha"/>
<feOffset dx="-10" dy="-10"/>
<feGaussianBlur stdDeviation="5"/>
<feComposite in2="hardAlpha" operator="arithmetic" k2="-1" k3="1"/>
<feColorMatrix type="matrix" values="0 0 0 0 1 0 0 0 0 1 0 0 0 0 1 0 0 0 0.05 0"/>
<feBlend mode="normal" in2="effect2_innerShadow_214_4923" result="effect3_innerShadow_214_4923"/>
</filter>
<radialGradient id="paint0_radial_214_4923" cx="0" cy="0" r="1" gradientUnits="userSpaceOnUse" gradientTransform="translate(0.5835 27.9998) rotate(-9.90425) scale(86.385 71.8954)">
<stop offset="0.0475149" stop-color="#69D4EE"/>
<stop offset="0.299717" stop-color="#B9F7FF" stop-opacity="0.63"/>
<stop offset="0.581597" stop-color="#50D4E5" stop-opacity="0.75"/>
<stop offset="0.82118" stop-color="#4ECAEF" stop-opacity="0.77"/>
</radialGradient>
<linearGradient id="paint1_linear_214_4923" x1="10.6025" y1="19.0948" x2="14.0186" y2="36.259" gradientUnits="userSpaceOnUse">
<stop stop-color="white" stop-opacity="0.64"/>
<stop offset="1" stop-color="white" stop-opacity="0.24"/>
</linearGradient>
<linearGradient id="paint2_linear_214_4923" x1="10.6025" y1="27.0571" x2="32.5099" y2="65.5829" gradientUnits="userSpaceOnUse">
<stop stop-color="white" stop-opacity="0.64"/>
<stop offset="1" stop-color="white" stop-opacity="0.24"/>
</linearGradient>
</defs>
</svg>
