<svg width="52" height="51" viewBox="0 0 52 51" fill="none" xmlns="http://www.w3.org/2000/svg">
<g filter="url(#filter0_f_214_5057)">
<circle cx="26" cy="25.5" r="25" fill="url(#paint0_radial_214_5057)" fill-opacity="0.5"/>
<circle cx="26" cy="25.5" r="24.85" stroke="#4EC3F9" stroke-opacity="0.6" stroke-width="0.3"/>
</g>
<g clip-path="url(#clip0_214_5057)">
<g filter="url(#filter1_b_214_5057)">
<path d="M24.0962 37.5757L24.6405 34.0908L26.2625 34.5057L24.0962 37.5757ZM24.2304 33.6957C24.2253 33.7053 24.2212 33.7153 24.2178 33.7256C24.2167 33.7283 24.216 33.7306 24.2154 33.7333C24.2123 33.7436 24.2092 33.7542 24.2075 33.7652L23.4918 38.3481C23.4791 38.4316 23.4435 38.5134 23.3847 38.5763C23.2567 38.7136 23.0469 38.7609 22.8702 38.6884C22.7648 38.6451 22.6762 38.5616 22.6293 38.4602L19.9733 32.6126L33.9813 12.8194C33.983 12.8181 33.9847 12.8171 33.9864 12.8158C34.1292 12.7233 34.3119 12.698 34.4769 12.7459C34.712 12.8141 34.8828 13.031 34.889 13.2708L24.2304 33.6957ZM11.6774 30.1723C11.5819 30.0518 11.5405 29.9028 11.5607 29.7518C11.5809 29.6011 11.6603 29.4667 11.7838 29.3742L32.7543 13.7329L19.5992 32.3218L11.9909 30.3755C11.8673 30.3436 11.7561 30.2717 11.6774 30.1723ZM33.8201 35.2505C33.8184 35.2894 33.8122 35.33 33.8016 35.3699C33.7198 35.6709 33.4012 35.8512 33.0914 35.7717L26.7125 34.1404L24.7911 33.6491L34.8363 14.3998L33.8201 35.2505Z" fill="url(#paint1_radial_214_5057)"/>
<path d="M23.393 38.3326L23.3929 38.3331C23.3829 38.3994 23.3549 38.4618 23.3117 38.5079L23.3115 38.5081C23.2118 38.6151 23.0462 38.6525 22.9082 38.5959L22.9082 38.5958C22.8254 38.5619 22.7562 38.4961 22.7202 38.4185C22.7201 38.4184 22.7201 38.4183 22.7201 38.4182L20.0881 32.6235L34.052 12.8927C34.168 12.8222 34.3154 12.8031 34.449 12.8419L34.4491 12.8419C34.6356 12.896 34.7721 13.0636 34.7877 13.2488L24.1421 33.6487C24.1421 33.6488 24.142 33.649 24.1419 33.6491C24.1342 33.6637 24.1282 33.6782 24.1235 33.6922C24.1215 33.6976 24.1201 33.7023 24.1191 33.7062C24.116 33.7164 24.1114 33.7322 24.1087 33.7498C24.1087 33.7498 24.1087 33.7498 24.1087 33.7498L23.393 38.3326ZM11.7558 30.1102L11.7557 30.1101C11.6769 30.0107 11.6432 29.8889 11.6598 29.7651C11.6764 29.6414 11.7413 29.5309 11.8437 29.4543L32.3078 14.1906L19.5573 32.2079L12.0159 30.2787C11.9131 30.2521 11.8208 30.1923 11.7558 30.1102ZM33.7202 35.2456L33.7202 35.2461C33.7188 35.2776 33.7138 35.3109 33.7051 35.3439C33.6381 35.5898 33.3752 35.7413 33.1163 35.6749L33.1162 35.6748L26.7373 34.0435L26.7125 34.1404L26.7373 34.0435L24.9381 33.5835L34.7142 14.8498L33.7202 35.2456ZM24.261 37.1687L24.7223 34.215L26.0971 34.5666L24.261 37.1687Z" stroke="url(#paint2_linear_214_5057)" stroke-width="0.2"/>
</g>
<g filter="url(#filter2_b_214_5057)">
<path fill-rule="evenodd" clip-rule="evenodd" d="M26 50.5C39.8071 50.5 51 39.3071 51 25.5C51 11.6929 39.8071 0.5 26 0.5C12.1929 0.5 1 11.6929 1 25.5C1 39.3071 12.1929 50.5 26 50.5ZM24.6403 34.0909L24.0962 37.5753L26.2624 34.5057L24.6403 34.0909ZM24.2176 33.7257C24.2211 33.7153 24.2252 33.7054 24.2303 33.6957H24.23C24.2303 33.6954 34.8889 13.2709 34.8889 13.2709C34.8827 13.031 34.7119 12.8141 34.4768 12.746C34.3118 12.6981 34.1291 12.7233 33.9863 12.8158L33.9812 12.8195L19.9732 32.6126L22.6292 38.4602C22.6761 38.5617 22.7647 38.6452 22.8701 38.6884C23.0467 38.7609 23.2566 38.7137 23.3846 38.5763C23.4434 38.5134 23.479 38.4316 23.4917 38.3481L24.2074 33.7652C24.2091 33.7543 24.2122 33.7436 24.2152 33.7333C24.2159 33.7306 24.2166 33.7283 24.2176 33.7257ZM11.5606 29.7519C11.5404 29.9029 11.5818 30.0519 11.6773 30.1723C11.756 30.2718 11.8672 30.3436 11.9908 30.3756L19.5991 32.3219L32.7542 13.7329L11.7837 29.3743C11.6602 29.4668 11.5807 29.6012 11.5606 29.7519ZM33.8015 35.3699C33.8121 35.33 33.8183 35.2894 33.82 35.2505L34.8362 14.3999L24.7909 33.6491L26.7124 34.1405L33.0913 35.7718C33.4011 35.8513 33.7197 35.671 33.8015 35.3699Z" fill="url(#paint3_radial_214_5057)" fill-opacity="0.3"/>
</g>
</g>
<defs>
<filter id="filter0_f_214_5057" x="0.5" y="0" width="51" height="51" filterUnits="userSpaceOnUse" color-interpolation-filters="sRGB">
<feFlood flood-opacity="0" result="BackgroundImageFix"/>
<feBlend mode="normal" in="SourceGraphic" in2="BackgroundImageFix" result="shape"/>
<feGaussianBlur stdDeviation="0.25" result="effect1_foregroundBlur_214_5057"/>
</filter>
<filter id="filter1_b_214_5057" x="9.33344" y="10.4999" width="27.7779" height="30.4444" filterUnits="userSpaceOnUse" color-interpolation-filters="sRGB">
<feFlood flood-opacity="0" result="BackgroundImageFix"/>
<feGaussianBlur in="BackgroundImageFix" stdDeviation="1.11111"/>
<feComposite in2="SourceAlpha" operator="in" result="effect1_backgroundBlur_214_5057"/>
<feBlend mode="normal" in="SourceGraphic" in2="effect1_backgroundBlur_214_5057" result="shape"/>
</filter>
<filter id="filter2_b_214_5057" x="-3.44444" y="-3.94444" width="58.8889" height="58.8889" filterUnits="userSpaceOnUse" color-interpolation-filters="sRGB">
<feFlood flood-opacity="0" result="BackgroundImageFix"/>
<feGaussianBlur in="BackgroundImageFix" stdDeviation="2.22222"/>
<feComposite in2="SourceAlpha" operator="in" result="effect1_backgroundBlur_214_5057"/>
<feBlend mode="normal" in="SourceGraphic" in2="effect1_backgroundBlur_214_5057" result="shape"/>
</filter>
<radialGradient id="paint0_radial_214_5057" cx="0" cy="0" r="1" gradientUnits="userSpaceOnUse" gradientTransform="translate(26 25.5) rotate(90) scale(25)">
<stop offset="0.717014" stop-color="#E6FFFA"/>
<stop offset="1" stop-color="#E6FFFA" stop-opacity="0"/>
</radialGradient>
<radialGradient id="paint1_radial_214_5057" cx="0" cy="0" r="1" gradientUnits="userSpaceOnUse" gradientTransform="translate(15.4446 29.9444) rotate(-28.6795) scale(31.9726 67.4734)">
<stop stop-color="#4ECAEF"/>
<stop offset="0.299717" stop-color="#47DDF0" stop-opacity="0.74"/>
<stop offset="0.518045" stop-color="#6ADDFF" stop-opacity="0.54725"/>
<stop offset="0.69618" stop-color="#4ECAEF"/>
</radialGradient>
<linearGradient id="paint2_linear_214_5057" x1="13.4633" y1="22.1818" x2="23.7371" y2="38.396" gradientUnits="userSpaceOnUse">
<stop stop-color="white" stop-opacity="0.64"/>
<stop offset="1" stop-color="white" stop-opacity="0.24"/>
</linearGradient>
<radialGradient id="paint3_radial_214_5057" cx="0" cy="0" r="1" gradientUnits="userSpaceOnUse" gradientTransform="translate(26 25.5) rotate(-180) scale(25)">
<stop offset="0.78125" stop-color="white"/>
<stop offset="0.976083" stop-color="white" stop-opacity="0.2"/>
</radialGradient>
<clipPath id="clip0_214_5057">
<rect width="50" height="50" fill="white" transform="translate(1 0.5)"/>
</clipPath>
</defs>
</svg>
